<svg viewBox="0 0 64 64" xmlns="http://www.w3.org/2000/svg"><g id="Layer_11" data-name="Layer 11"><path d="m55 36.91h-3v-3a5 5 0 0 0 -5-5h-5v-3a1 1 0 0 0 -1-1h-8v-2.15a4 4 0 1 0 -2 0v2.15h-8a1 1 0 0 0 -1 1v3h-5a5 5 0 0 0 -5 5v3h-3a3 3 0 0 0 -3 3v12a3 3 0 0 0 3 3h3v3a5 5 0 0 0 5 5h30a5 5 0 0 0 5-5v-3h3a3 3 0 0 0 3-3v-12a3 3 0 0 0 -3-3zm-25-18a2 2 0 1 1 2 2 2 2 0 0 1 -2-2zm-21 34a1 1 0 0 1 -1-1v-12a1 1 0 0 1 1-1h3v14zm15-26h16v2h-16zm26 31a3 3 0 0 1 -3 3h-30a3 3 0 0 1 -3-3v-24a3 3 0 0 1 3-3h30a3 3 0 0 1 3 3zm6-6a1 1 0 0 1 -1 1h-3v-14h3a1 1 0 0 1 1 1z"/><path d="m41 46.91h-18a1 1 0 0 0 -1 1v1a10 10 0 0 0 20 0v-1a1 1 0 0 0 -1-1zm-9 10a8 8 0 0 1 -8-8h16a8 8 0 0 1 -8 8z"/><path d="m26 40.91a4 4 0 1 0 -4 4 4 4 0 0 0 4-4zm-6 0a2 2 0 1 1 2 2 2 2 0 0 1 -2-2z"/><path d="m42 36.91a4 4 0 1 0 4 4 4 4 0 0 0 -4-4zm0 6a2 2 0 1 1 2-2 2 2 0 0 1 -2 2z"/><path d="m16.29 22.61a1 1 0 0 0 .71.3 1 1 0 0 0 1-1v-3h6a3 3 0 0 0 3-3v-12a3 3 0 0 0 -3-3h-20a3 3 0 0 0 -3 3v12a3 3 0 0 0 3 3h8.59zm-13.29-6.7v-12a1 1 0 0 1 1-1h20a1 1 0 0 1 1 1v12a1 1 0 0 1 -1 1h-7a1 1 0 0 0 -1 1v1.58l-2.29-2.29a1 1 0 0 0 -.71-.29h-9a1 1 0 0 1 -1-1z"/><path d="m60 4.91h-20a3 3 0 0 0 -3 3v12a3 3 0 0 0 3 3h6v3a1 1 0 0 0 1 1 1 1 0 0 0 .71-.3l3.7-3.7h8.59a3 3 0 0 0 3-3v-12a3 3 0 0 0 -3-3zm1 15a1 1 0 0 1 -1 1h-9a1 1 0 0 0 -.71.29l-2.29 2.29v-1.58a1 1 0 0 0 -1-1h-7a1 1 0 0 1 -1-1v-12a1 1 0 0 1 1-1h20a1 1 0 0 1 1 1z"/><path d="m5 4.91h18v2h-18z"/><path d="m5 12.91h18v2h-18z"/><path d="m7 8.91h14v2h-14z"/><path d="m41 8.91h18v2h-18z"/><path d="m41 16.91h18v2h-18z"/><path d="m43 12.91h14v2h-14z"/></g></svg>