<svg id="Layer_1" enable-background="new 0 0 500 500" viewBox="0 0 500 500" xmlns="http://www.w3.org/2000/svg"><path d="m288.2 133.5c-3.9 0-7-3.1-7-7s3.1-7 7-7h29c3.9 0 7 3.1 7 7s-3.1 7-7 7zm-135.2 38.8c32.7 0 59.1 26.5 59.1 59.1 0 32.7-26.5 59.2-59.1 59.2-32.7 0-59.2-26.5-59.2-59.2s26.5-59.1 59.2-59.1zm31.9 27.2c-17.6-17.6-46.2-17.6-63.9 0-17.6 17.6-17.6 46.2 0 63.8s46.2 17.6 63.9 0c17.6-17.6 17.6-46.2 0-63.8zm-38.9-69.2h14c7.9 0 14.4 6.5 14.4 14.4l.1 5.7 10.6 3.6c3.3 1.4 6.6 3 9.8 4.8l.5-.1 3.8-3.8c5.6-5.6 14.8-5.6 20.4 0l9.9 9.9c5.6 5.6 5.6 14.7 0 20.4l-4 4.1c0 .1 0 .2.1.3 1.8 3.1 3.4 6.4 4.8 9.8 1.4 3.4 2.6 6.8 3.5 10.3.4 1.4 9.4-2.1 16 4.5 2.6 2.6 4.2 6.2 4.2 10.2v13.9c0 8-6.5 14.4-14.4 14.4h-5.4l-.4.3c-1.9 7-4.7 13.9-8.4 20.2l.1.5c4.3 4.3 8.1 7.2 8.1 14 0 3.7-1.4 7.4-4.2 10.2l-9.9 9.9c-5.6 5.6-14.7 5.6-20.4 0l-4.1-4c-.1 0-.2 0-.3.1-6.3 3.7-13.1 6.5-20.2 8.4-1.3.4 2.1 9.4-4.5 16-2.6 2.6-6.2 4.2-10.2 4.2h-14c-7.9 0-14.4-6.5-14.4-14.4l-.1-5.7-10.6-3.7c-3.3-1.4-6.6-3-9.8-4.8l-.5.1c-4.3 4.3-7.3 8.1-14 8.1-3.7 0-7.4-1.4-10.2-4.2l-9.9-9.9c-5.6-5.6-5.6-14.8 0-20.4l4-4.1c0-.1 0-.2-.1-.3-3.6-6.3-6.5-13.2-8.4-20.2-.4-1.4-9.4 2.1-16-4.5-2.6-2.6-4.2-6.2-4.2-10.2v-13.9c0-7.9 6.5-14.4 14.4-14.4h5.9c.1-.1.1-.1.1-.3 1.9-7 4.7-13.9 8.4-20.2l-.1-.5c-4.3-4.3-8.1-7.3-8.1-14 0-3.7 1.4-7.4 4.2-10.2l9.9-9.9c5.6-5.6 14.8-5.6 20.4 0l4.1 4c.1 0 .2 0 .3-.1 6.3-3.7 13.1-6.5 20.2-8.4l.3-.4v-5.4c-.1-7.8 6.4-14.3 14.3-14.3zm14 14h-14l-.4.4v5.4c0 6.5-4.4 12.2-10.7 13.9-5.9 1.6-11.5 3.9-16.8 6.9-5.6 3.3-12.8 2.4-17.4-2.3l-4.1-3.9c-.1 0-.2 0-.3.1l-9.9 9.9v.6l3.8 3.9c4.6 4.6 5.6 11.7 2.3 17.4-3.1 5.3-5.4 10.9-6.9 16.8-1.7 6.3-7.4 10.7-13.9 10.7l-5.7.1c-.3.1-.1 12.9-.1 14.2 0 1.5 8.1-1.6 14.6 3.4 5.6 4.3 5 9.4 7.9 16 1.5 3.4 2.3 5.3 4.2 8.5 3.3 5.7 2.4 12.8-2.3 17.4l-3.9 4.1c0 .1 0 .2.1.3l9.9 9.9h.6l3.9-3.9c4.5-4.6 11.7-5.6 17.4-2.3 2.6 1.5 5.3 2.9 8.2 4 2.7 1.1 5.6 2.1 8.6 2.9 6.3 1.7 10.7 7.4 10.7 13.9l.1 5.7c.1.3 12.9.1 14.3.1 1.5 0-1.6-8.1 3.4-14.6 1.9-2.5 4.5-4.3 7.7-5.2 5.9-1.6 11.5-3.9 16.8-6.9 5.7-3.3 12.8-2.3 17.4 2.3l4.1 4c.1 0 .2-.1.3-.1l9.9-9.9v-.6l-3.8-3.8c-4.6-4.6-5.6-11.7-2.3-17.4 3.1-5.3 5.4-10.8 6.9-16.8 1.7-6.3 7.4-10.7 13.9-10.7h5.4l.4-.4v-13.9c0-1.5-8.1 1.6-14.6-3.4-2.5-1.9-4.3-4.6-5.2-7.7-.8-3-1.8-5.8-2.9-8.6l-4-8.2c-3.3-5.7-2.4-12.8 2.3-17.4l3.9-4.1c.1-.3-9-9.2-10-10.1h-.6c-3.9 3.9-6.4 7.2-12.1 8-3.1.4-6.2-.2-9.1-1.8-2.6-1.5-5.3-2.8-8.2-4-2.7-1.1-5.6-2.1-8.6-2.9-6.3-1.7-10.7-7.3-10.7-13.9l-.1-5.7c-.2-.2-.3-.3-.4-.3zm-75.9 248h3.3v-30.9c-42.7-25.3-69.4-71.3-69.4-121.7 0-80.1 66.3-144.3 146.4-141.5v-3.8c0-29.1 23.8-52.8 52.9-52.8h211.8c29.1 0 52.8 23.8 52.8 52.8v311.3c0 29.1-23.8 52.8-52.8 52.8h-337.5c-18.2 0-33.1-14.9-33.1-33.1v-7.6c0-14 11.5-25.5 25.6-25.5zm17.3 0h97.9v-18.1c0-3.9 3.1-7 7-7h79.9v-50.5c0-3.1 2-5.9 5.2-6.7l27-7.2-30.6-46.2c-.9-1.3-1.3-2.9-1.1-4.5 7.1-74.3-50.7-140.1-127-140.1-70.6.1-127.7 57.2-127.7 127.7 0 23.6 6.4 45.7 17.6 64.7 11.4 19.4 27.9 35.6 47.7 46.6 2.4 1.1 4.1 3.5 4.1 6.4zm111.9 0h5.4c26.6 0 42.6 30.3 27 52.2h183.5c21.3 0 38.9-17.5 38.9-38.8v-311.4c0-21.3-17.5-38.8-38.9-38.8h-211.9c-21.3 0-38.9 17.5-38.9 38.8v5c28.5 3.8 54.3 16.1 74.8 34.2 32.4 28.6 49.8 69.8 47.8 113.1-.1 1.4-.2 2.9-.3 4.4l34.6 52.3c2.7 4 .5 9.4-4 10.6l-31.2 8.3v52.1c0 3.9-3.1 7-7 7h-79.9v11zm5.3 14h-134.5c-6.3 0-11.5 5.2-11.5 11.5 0 8.2-.8 14.6 5.6 21 3.5 3.5 8.2 5.6 13.5 5.6h127c16.8 0 25.6-20.4 13.5-32.6-3.5-3.3-8.3-5.5-13.6-5.5zm187.1-90.9 11.6 20.4 23 4.7c5.2 1.1 7.6 7.6 3.5 11.8l-15.6 17.1 2.6 23.4c.6 5.4-5 9.3-9.8 7.1l-21.4-9.7-21.4 9.7c-4.9 2.2-10.5-1.7-9.8-7.3l2.6-23.3-15.8-17.3c-3.7-4-1.5-10.5 3.7-11.5l23-4.7 11.6-20.5c2.8-4.7 9.6-4.6 12.2.1zm1 30.1-7.1-12.5-7.1 12.5c-1 1.7-2.6 3-4.7 3.4l-14.1 2.9 9.4 10.3c1.5 1.4 2.4 3.6 2.2 5.9l-1.6 14.3 13.1-6c1.8-.8 3.8-.9 5.7 0l13.1 6-1.6-14.3c-.2-1.9.4-3.9 1.8-5.4l9.7-10.7-13.9-2.8c-2-.5-3.8-1.7-4.9-3.6zm-1-142.7 11.6 20.4 23 4.7c5.2 1.1 7.6 7.6 3.5 11.8l-15.6 17.1 2.6 23.4c.6 5.4-5 9.3-9.8 7.1l-21.4-9.8-21.4 9.8c-4.9 2.2-10.5-1.8-9.8-7.3l2.6-23.3-15.8-17.4c-3.7-4-1.5-10.5 3.7-11.5l23-4.7 11.6-20.5c2.7-4.6 9.6-4.5 12.2.2zm1 30.1-7.1-12.5-7.1 12.5c-1 1.7-2.6 3-4.7 3.4l-14.1 2.9 9.4 10.2c1.5 1.4 2.4 3.6 2.2 5.9l-1.6 14.3 13.1-6c1.8-.8 3.8-.9 5.7 0l13.1 6-1.6-14.3c-.2-1.9.4-3.9 1.8-5.5l9.7-10.6-13.9-2.9c-2-.3-3.9-1.5-4.9-3.4zm-1.1-142.6 11.6 20.4 23 4.7c5.2 1 7.6 7.5 3.5 11.8l-15.6 17.1 2.6 23.4c.6 5.4-5 9.3-9.8 7.1l-21.4-9.8-21.4 9.8c-4.9 2.2-10.5-1.7-9.8-7.3l2.6-23.3-15.9-17.3c-3.7-4-1.5-10.5 3.7-11.5l23-4.7 11.6-20.5c2.9-4.8 9.7-4.7 12.3.1zm1 30-7.1-12.5-7.1 12.5c-1 1.7-2.6 3-4.7 3.4l-14.1 2.9 9.4 10.2c1.5 1.5 2.4 3.6 2.2 5.9l-1.6 14.3 13.1-6c1.8-.8 3.8-.9 5.7 0l13.1 6-1.6-14.3c-.2-1.9.4-3.9 1.8-5.5l9.7-10.6-13.9-2.9c-2-.3-3.8-1.5-4.9-3.4z"/></svg>