<?xml version="1.0"?>
<svg xmlns="http://www.w3.org/2000/svg" id="Layer_1" data-name="Layer 1" viewBox="0 0 64 64"><path d="M56.961,10.676H55.52V9.053a6.187,6.187,0,0,0-6.18-6.181H14.67A6.187,6.187,0,0,0,8.49,9.053v1.623H7.039A5.053,5.053,0,0,0,2,15.732V20.9a5.044,5.044,0,0,0,5.039,5.038H8.49v1.638a6.187,6.187,0,0,0,6.18,6.181h6.866a15.7,15.7,0,1,0,20.928,0H49.34a6.187,6.187,0,0,0,6.18-6.181V25.934h1.441A5.044,5.044,0,0,0,62,20.9V15.732A5.053,5.053,0,0,0,56.961,10.676ZM7.039,23.934A3.043,3.043,0,0,1,4,20.9V15.732a3.051,3.051,0,0,1,3.039-3.056H8.49V23.934ZM45.7,45.426A13.7,13.7,0,1,1,32,31.725,13.718,13.718,0,0,1,45.7,45.426ZM53.52,27.572a4.185,4.185,0,0,1-4.18,4.181H39.692a15.6,15.6,0,0,0-15.384,0H14.67a4.185,4.185,0,0,1-4.18-4.181V9.053a4.185,4.185,0,0,1,4.18-4.181H49.34a4.185,4.185,0,0,1,4.18,4.181ZM60,20.9a3.043,3.043,0,0,1-3.039,3.038H55.52V12.676h1.441A3.051,3.051,0,0,1,60,15.732Z"/><path d="M21.913,18.065a5.078,5.078,0,1,0-5.079-5.078A5.084,5.084,0,0,0,21.913,18.065Zm0-8.156a3.078,3.078,0,1,1-3.079,3.078A3.082,3.082,0,0,1,21.913,9.909Z"/><path d="M42.087,7.909a5.078,5.078,0,1,0,5.079,5.078A5.084,5.084,0,0,0,42.087,7.909Zm0,8.156a3.078,3.078,0,1,1,3.079-3.078A3.081,3.081,0,0,1,42.087,16.065Z"/><path d="M46.166,20.484H17.834a1,1,0,0,0-1,1v6.231a1,1,0,0,0,1,1H46.166a1,1,0,0,0,1-1V21.484A1,1,0,0,0,46.166,20.484Zm-16.1,2h3.872v4.231H30.064Zm-2,4.231H24.193V22.484h3.871Zm7.872-4.231h3.871v4.231H35.936Zm-17.1,0h3.359v4.231H18.834Zm26.332,4.231H41.807V22.484h3.359Z"/><path d="M32,49.44a4.926,4.926,0,0,0,4.921-4.92V38.565a4.921,4.921,0,0,0-9.842,0V44.52A4.926,4.926,0,0,0,32,49.44Zm0-2a2.924,2.924,0,0,1-2.921-2.92V42.542h5.842V44.52A2.924,2.924,0,0,1,32,47.44Zm0-11.8a2.924,2.924,0,0,1,2.921,2.921v1.977H29.079V38.565A2.924,2.924,0,0,1,32,35.644Z"/><path d="M39.614,43.486a1,1,0,0,0-1,1,6.619,6.619,0,0,1-13.228,0,1,1,0,0,0-2,0A8.469,8.469,0,0,0,31,52.8v2.413H28.952a1,1,0,1,0,0,2h6.1a1,1,0,0,0,0-2H33V52.8a8.469,8.469,0,0,0,7.614-8.309A1,1,0,0,0,39.614,43.486Z"/></svg>
