<svg id="Energy_Monitoring" viewBox="0 0 64 64" xmlns="http://www.w3.org/2000/svg" data-name="Energy Monitoring"><path d="m32 28c7.17 0 13-5.83 13-13s-5.83-13-13-13-13 5.83-13 13 5.83 13 13 13zm0-24c6.07 0 11 4.93 11 11s-4.93 11-11 11-11-4.93-11-11 4.93-11 11-11z"/><path d="m28.68 14.95 4.76 1.59-3.27 4.91c-.31.46-.18 1.08.28 1.39.17.11.36.17.55.17.32 0 .64-.16.83-.45l4-6c.17-.26.21-.58.11-.88-.1-.29-.33-.53-.63-.62l-4.76-1.59 3.27-4.91c.31-.46.18-1.08-.28-1.39s-1.08-.18-1.39.28l-4 6c-.17.26-.21.58-.11.88.1.29.33.53.63.62z"/><path d="m61 50h-3v-28c0-3.31-2.69-6-6-6h-4c-.55 0-1 .45-1 1s.45 1 1 1h4c2.21 0 4 1.79 4 4v28h-18c-.33 0-.65.17-.83.45l-1.7 2.55h-6.93l-1.7-2.55c-.19-.28-.5-.45-.83-.45h-18.01v-28c0-2.21 1.79-4 4-4h4c.55 0 1-.45 1-1s-.45-1-1-1h-4c-3.31 0-6 2.69-6 6v28h-3c-.55 0-1 .45-1 1v3c0 4.41 3.59 8 8 8h44c4.41 0 8-3.59 8-8v-3c0-.55-.45-1-1-1zm-1 4c0 3.31-2.69 6-6 6h-44c-3.31 0-6-2.69-6-6v-2h21.46l1.7 2.55c.19.28.5.45.83.45h8c.33 0 .65-.17.83-.45l1.7-2.55h21.46v2z"/><path d="m30 33c-.55 0-1 .45-1 1v12c0 .55.45 1 1 1h4c.55 0 1-.45 1-1v-12c0-.55-.45-1-1-1zm3 12h-2v-10h2z"/><path d="m38 30c-.55 0-1 .45-1 1v15c0 .55.45 1 1 1h4c.55 0 1-.45 1-1v-15c0-.55-.45-1-1-1zm3 15h-2v-13h2z"/><path d="m45 46c0 .55.45 1 1 1h4c.55 0 1-.45 1-1v-9c0-.55-.45-1-1-1h-4c-.55 0-1 .45-1 1zm2-8h2v7h-2z"/><path d="m22 36c-.55 0-1 .45-1 1v9c0 .55.45 1 1 1h4c.55 0 1-.45 1-1v-9c0-.55-.45-1-1-1zm3 9h-2v-7h2z"/><path d="m13 29v17c0 .55.45 1 1 1h4c.55 0 1-.45 1-1v-17c0-.55-.45-1-1-1h-4c-.55 0-1 .45-1 1zm2 1h2v15h-2z"/></svg>