<?xml version="1.0"?>
<svg xmlns="http://www.w3.org/2000/svg" data-name="Layer 1" id="Layer_1" viewBox="0 0 128 128"><title/><path d="M69,120a2,2,0,0,0,0-4H59a2,2,0,0,0,0,4Z"/><circle cx="64" cy="10" r="2"/><path d="M83,36.42859V33.57141a5.43729,5.43729,0,0,0-3.39728-5.0343,5.4374,5.4374,0,0,0-1.15741-5.96191l-2.02039-2.02039a5.44072,5.44072,0,0,0-5.96313-1.16022A5.4375,5.4375,0,0,0,65.42859,16H62.57141a5.4371,5.4371,0,0,0-5.03326,3.39471,5.44016,5.44016,0,0,0-5.963,1.16l-2.02032,2.02039a5.43745,5.43745,0,0,0-1.15753,5.962A5.43729,5.43729,0,0,0,45,33.57141v2.85718a5.4373,5.4373,0,0,0,3.39771,5.03448,5.43622,5.43622,0,0,0,1.157,5.96173l2.02032,2.02032a5.44072,5.44072,0,0,0,5.96313,1.16022A5.43755,5.43755,0,0,0,62.57141,54h2.85718a5.43706,5.43706,0,0,0,5.03326-3.39478,5.44015,5.44015,0,0,0,5.963-1.16l2.02032-2.02039a5.43724,5.43724,0,0,0,1.15759-5.96191A5.43739,5.43739,0,0,0,83,36.42859Zm-4,0a1.42856,1.42856,0,0,1-1.42859,1.42853,1.35976,1.35976,0,0,0-1.30017.95416,12.75726,12.75726,0,0,1-.89923,2.16528,1.36042,1.36042,0,0,0,.24286,1.59766l.00189.00189a1.42865,1.42865,0,0,1,0,2.02032L73.5965,46.6167a1.42858,1.42858,0,0,1-2.02032.00006l-.00189-.002a1.35982,1.35982,0,0,0-1.59766-.2428,12.75268,12.75268,0,0,1-2.16534.89917,1.36,1.36,0,0,0-.95416,1.30023A1.42856,1.42856,0,0,1,65.42859,50H62.57141a1.42856,1.42856,0,0,1-1.42853-1.42859,1.36,1.36,0,0,0-.95416-1.30023,12.75268,12.75268,0,0,1-2.16534-.89917,1.35982,1.35982,0,0,0-1.59766.2428l-.00189.00189a1.4285,1.4285,0,0,1-2.02032,0l-2.02026-2.02026a1.42865,1.42865,0,0,1,0-2.02032l.00189-.00189a1.36042,1.36042,0,0,0,.24286-1.59766,12.75726,12.75726,0,0,1-.89923-2.16528,1.35976,1.35976,0,0,0-1.30017-.95416A1.42856,1.42856,0,0,1,49,36.42859V33.57141a1.42861,1.42861,0,0,1,1.42859-1.42859,1.35978,1.35978,0,0,0,1.30017-.9541,12.75788,12.75788,0,0,1,.89923-2.16534,1.36051,1.36051,0,0,0-.2428-1.59766l-.002-.00189a1.42865,1.42865,0,0,1,0-2.02032l2.02026-2.02026a1.42858,1.42858,0,0,1,2.02032-.00006l.002.002a1.36,1.36,0,0,0,1.59766.24286,12.75229,12.75229,0,0,1,2.16528-.89923,1.35987,1.35987,0,0,0,.95416-1.30017A1.42856,1.42856,0,0,1,62.57141,20h2.85718a1.42856,1.42856,0,0,1,1.42853,1.42859,1.35987,1.35987,0,0,0,.95416,1.30017,12.75229,12.75229,0,0,1,2.16528.89923,1.36,1.36,0,0,0,1.59766-.24286l.002-.002a1.42858,1.42858,0,0,1,2.02032.00006l2.02026,2.02026a1.42865,1.42865,0,0,1,0,2.02032l-.002.00189a1.36051,1.36051,0,0,0-.2428,1.59766,12.75788,12.75788,0,0,1,.89923,2.16534,1.35978,1.35978,0,0,0,1.30017.9541A1.42861,1.42861,0,0,1,79,33.57141Z"/><path d="M33,8a4.00427,4.00427,0,0,1,4-4H91a4.00427,4.00427,0,0,1,4,4V53.17767a23.249,23.249,0,0,1,4-2.4704V8a8.00917,8.00917,0,0,0-8-8H37a8.00917,8.00917,0,0,0-8,8V60.46759l4,.00311Z"/><path d="M29,82.16V120a8.00917,8.00917,0,0,0,8,8H91a8.00917,8.00917,0,0,0,8-8V92.05127a23.22713,23.22713,0,0,1-4-2.47284V120a4.00427,4.00427,0,0,1-4,4H37a4.00427,4.00427,0,0,1-4-4V82.16309Z"/><path d="M12.99854,73.3009h.00171a1.99429,1.99429,0,0,0,1.79-1.1236l.00458-.00934a1.93215,1.93215,0,0,0,.0014-1.73126l-.00464-.0094A1.99384,1.99384,0,0,0,13,69.3009q-.09027,0-.18463.00775a2.0003,2.0003,0,0,0,.18317,3.99225Z"/><path d="M108.99121,82.37744h.002a2,2,0,0,0,.002-4,7.03517,7.03517,0,0,1-6.7002-5.00732A2.00027,2.00027,0,0,0,98.459,74.50586,11.062,11.062,0,0,0,108.99121,82.37744Z"/><path d="M12.98926,84.30078H13a12.90365,12.90365,0,0,0,11.03516-6.145L42,78.1701v5.25275a17.7,17.7,0,0,0,5.68555,13.0376,4.27435,4.27435,0,0,1,1.46222,4.11365L48.02148,108.208a1.99995,1.99995,0,1,0,3.957.584l1.13672-7.70459c.002-.01367.00018-.02686.00189-.04053.0022-.017.00806-.03259.00983-.0498a8.21091,8.21091,0,0,0-2.72266-7.47021A13.69284,13.69284,0,0,1,46,83.43457V78.17328l4.12555.0033A1.99552,1.99552,0,0,0,54,77.5v-14a2,2,0,0,1,4,0v14a2,2,0,0,0,4,0v-14a2,2,0,0,1,4,0v12a2,2,0,0,0,4,0v-12a2,2,0,0,1,4,0v11a2,2,0,0,0,4,0v-7a2,2,0,0,1,4,0V84.4873c-.02246,3.54-1.56348,6.62109-4.71094,9.41943a8.11215,8.11215,0,0,0-2.82422,7.38672l.541,7.35352A1.99955,1.99955,0,0,0,76.998,110.5c.04883,0,.09863-.002.14844-.00537a1.99981,1.99981,0,0,0,1.84766-2.1416l-.543-7.38232A4.16439,4.16439,0,0,1,79.94824,96.895C83.93359,93.35156,85.96973,89.18555,86,84.5V78.20526l5.27637.00421a19.12175,19.12175,0,0,0,17.708,12.168H109a19.01878,19.01878,0,0,0,17.78906-25.69678,2.00044,2.00044,0,0,0-3.28711-.71631L117.415,70.0415a2.00282,2.00282,0,0,1-2.82812-.00244l-4.24023-4.24658a2.00282,2.00282,0,0,1,.00293-2.82812l6.08594-6.07666a2.00017,2.00017,0,0,0-.71-3.28809,19.06207,19.06207,0,0,0-6.71-1.22217H109A19.12189,19.12189,0,0,0,91.28711,64.51709l-6.09143-.00488a5.97391,5.97391,0,0,0-7.41138-2.58307A5.9822,5.9822,0,0,0,68,59.04047a5.96347,5.96347,0,0,0-8,0A5.98985,5.98985,0,0,0,50,63.5v.98413l-25.9541-.02075a12.90254,12.90254,0,0,0-11.03516-6.1626H13a13,13,0,0,0-.01074,26ZM86,68.5127l6.71191.00537h.002a2.00029,2.00029,0,0,0,1.917-1.4292A15.0828,15.0828,0,0,1,109,56.37744h.0127a15.05247,15.05247,0,0,1,2.12109.15088l-3.61035,3.605a6.00608,6.00608,0,0,0-.00684,8.48535l4.23926,4.24658a6.00785,6.00785,0,0,0,8.48535.00732l3.61133-3.60547A15.01132,15.01132,0,0,1,109,86.37744h-.01172A15.08373,15.08373,0,0,1,94.624,75.64258a2.00028,2.00028,0,0,0-1.916-1.43213L86,74.20508ZM13,62.30078h.00684a8.94688,8.94688,0,0,1,8.06543,5.04346,1.99907,1.99907,0,0,0,1.793,1.11816L50,68.484v5.69238l-27.13867-.02161h-.002A1.99977,1.99977,0,0,0,21.06543,75.27,8.94418,8.94418,0,0,1,13,80.30078h-.00684a9,9,0,0,1,.00684-18Z"/><path d="M64,26a9,9,0,1,0,9,9A9.01015,9.01015,0,0,0,64,26Zm0,14a5,5,0,1,1,5-5A5,5,0,0,1,64,40Z"/></svg>
