<?xml version="1.0"?>
<svg xmlns="http://www.w3.org/2000/svg" id="Layer_1" data-name="Layer 1" viewBox="0 0 512 512"><path d="M265.885,191.389a24.857,24.857,0,0,0-24.828-24.829h-119.3a24.857,24.857,0,0,0-24.829,24.829v80.7a24.857,24.857,0,0,0,24.829,24.828h119.3a24.856,24.856,0,0,0,24.828-24.828Zm-14,80.7a10.84,10.84,0,0,1-10.828,10.828h-119.3a10.841,10.841,0,0,1-10.829-10.828v-80.7a10.841,10.841,0,0,1,10.829-10.829h119.3a10.841,10.841,0,0,1,10.828,10.829ZM215.55,217.772l-42.6-24.594a16.128,16.128,0,0,0-24.191,13.967v49.188A16.094,16.094,0,0,0,172.951,270.3l42.6-24.595a16.128,16.128,0,0,0,0-27.934Zm-7,15.81-42.6,24.594a2.128,2.128,0,0,1-3.192-1.843V207.145a2.059,2.059,0,0,1,1.064-1.843,2.165,2.165,0,0,1,1.07-.3,2.089,2.089,0,0,1,1.057.3l42.6,24.594a2.128,2.128,0,0,1,0,3.686ZM372.409,401.793a19.7,19.7,0,0,1-10.289,20.8,25.3,25.3,0,0,1-4.554,1.89v4.551a7,7,0,0,1-14,0V424.8a24.677,24.677,0,0,1-3.422-1.155,19.405,19.405,0,0,1-11.452-12.279,7,7,0,0,1,13.461-3.848,5.614,5.614,0,0,0,3.439,3.231,11.753,11.753,0,0,0,9.9-.491,5.818,5.818,0,0,0,3.135-5.984c-.6-3.355-4.736-5.874-11.05-6.738-8.317-1.139-14.712-5.966-17.108-12.914A18.364,18.364,0,0,1,334.639,366a21.587,21.587,0,0,1,8.927-5.419v-4.556a7,7,0,0,1,14,0v4.384a23.4,23.4,0,0,1,11.636,7.8,7,7,0,1,1-10.869,8.824,9.388,9.388,0,0,0-7.036-3.578,9.04,9.04,0,0,0-6.614,2.3,4.25,4.25,0,0,0-.975,4.308c.657,1.907,2.707,3.188,5.771,3.607C362.1,385.4,370.674,392.172,372.409,401.793Zm82.418-35.338a50.375,50.375,0,0,0-13.324-4.808,1.375,1.375,0,0,1-1.014-.9,95.13,95.13,0,0,0-3.918-9.432,1.567,1.567,0,0,1,.017-1.493,52.654,52.654,0,0,0,5.976-12.416,15.276,15.276,0,0,0-3.788-15.567l-17.6-17.6a15.343,15.343,0,0,0-15.32-3.865,50.407,50.407,0,0,0-12.825,6.025,1.386,1.386,0,0,1-1.361.075,95.2,95.2,0,0,0-9.439-3.9,1.568,1.568,0,0,1-1.039-1.068,52.731,52.731,0,0,0-4.552-13,15.28,15.28,0,0,0-13.691-8.329H338.062a15.342,15.342,0,0,0-13.573,8.1,50.378,50.378,0,0,0-4.806,13.325,1.4,1.4,0,0,1-.9,1.013q-2.535.9-5.036,1.948V31.884A24.807,24.807,0,0,0,288.964,7.106H73.85A24.807,24.807,0,0,0,49.071,31.884v399.71A24.806,24.806,0,0,0,73.85,456.372H258.367a15.44,15.44,0,0,0,3.988,6.854l17.6,17.6a15.328,15.328,0,0,0,15.318,3.865,50.325,50.325,0,0,0,12.827-6.024,1.385,1.385,0,0,1,1.361-.074A95.28,95.28,0,0,0,318.9,482.5a1.559,1.559,0,0,1,1.037,1.066,52.694,52.694,0,0,0,4.552,13,15.28,15.28,0,0,0,13.691,8.33h24.884a15.341,15.341,0,0,0,13.572-8.1,50.335,50.335,0,0,0,4.807-13.324,1.4,1.4,0,0,1,.905-1.014,95.112,95.112,0,0,0,9.434-3.919,1.571,1.571,0,0,1,1.491.018,52.7,52.7,0,0,0,12.415,5.976,15.27,15.27,0,0,0,15.567-3.788l17.6-17.6a15.34,15.34,0,0,0,3.866-15.321,50.415,50.415,0,0,0-6.024-12.824,1.383,1.383,0,0,1-.076-1.361,95.3,95.3,0,0,0,3.907-9.441,1.561,1.561,0,0,1,1.067-1.038,52.719,52.719,0,0,0,13-4.551,15.285,15.285,0,0,0,8.329-13.692V380.026A15.34,15.34,0,0,0,454.827,366.455ZM258.4,337.242a50.375,50.375,0,0,0,6.025,12.826,1.382,1.382,0,0,1,.074,1.362,95.645,95.645,0,0,0-3.906,9.439,1.56,1.56,0,0,1-1.066,1.038,52.711,52.711,0,0,0-13,4.552,15.279,15.279,0,0,0-8.329,13.69v21.6H63.071V61.73H299.742V302.16c-1.423-.612-2.859-1.16-4.3-1.629a15.283,15.283,0,0,0-15.567,3.788l-17.6,17.6A15.339,15.339,0,0,0,258.4,337.242ZM73.85,21.106H288.964a10.79,10.79,0,0,1,10.778,10.778V47.73H63.071V31.884A10.79,10.79,0,0,1,73.85,21.106ZM63.071,431.594V415.747H242.526a15.244,15.244,0,0,0,3.778,2.859,50.35,50.35,0,0,0,13.326,4.808,1.376,1.376,0,0,1,1.012.9,95.147,95.147,0,0,0,3.918,9.433,1.562,1.562,0,0,1-.018,1.492,54.828,54.828,0,0,0-3.912,7.129H73.85A10.79,10.79,0,0,1,63.071,431.594Zm385.858-26.683a1.364,1.364,0,0,1-.695,1.223,38.765,38.765,0,0,1-9.546,3.327,15.61,15.61,0,0,0-11.358,10.084,81.436,81.436,0,0,1-3.33,8.046,15.489,15.489,0,0,0,.97,15.039,36.436,36.436,0,0,1,4.363,9.254,1.383,1.383,0,0,1-.37,1.355l-17.6,17.6a1.355,1.355,0,0,1-1.351.369,38.763,38.763,0,0,1-9.108-4.4,15.6,15.6,0,0,0-15.174-.9,81.073,81.073,0,0,1-8.039,3.339,15.481,15.481,0,0,0-9.936,11.315,36.394,36.394,0,0,1-3.459,9.626,1.389,1.389,0,0,1-1.224.7H338.185a1.362,1.362,0,0,1-1.222-.695,38.713,38.713,0,0,1-3.328-9.546A15.608,15.608,0,0,0,323.551,469.3a81.487,81.487,0,0,1-8.045-3.329,15.481,15.481,0,0,0-15.039.969,36.381,36.381,0,0,1-9.257,4.362,1.379,1.379,0,0,1-1.353-.369l-17.6-17.6a1.356,1.356,0,0,1-.369-1.351,38.745,38.745,0,0,1,4.4-9.108,15.61,15.61,0,0,0,.9-15.174,81.132,81.132,0,0,1-3.339-8.039,15.477,15.477,0,0,0-11.315-9.936,36.408,36.408,0,0,1-9.625-3.458,1.389,1.389,0,0,1-.7-1.225V380.149a1.361,1.361,0,0,1,.695-1.221,38.665,38.665,0,0,1,9.545-3.327A15.617,15.617,0,0,0,273.8,365.517a81.073,81.073,0,0,1,3.328-8.046,15.483,15.483,0,0,0-.968-15.038,35.88,35.88,0,0,1-4.363-9.256,1.382,1.382,0,0,1,.368-1.355l17.6-17.6a1.344,1.344,0,0,1,1.351-.37,38.754,38.754,0,0,1,9.109,4.4,15.616,15.616,0,0,0,15.174.9,81.29,81.29,0,0,1,8.04-3.339,15.483,15.483,0,0,0,9.935-11.315,35.875,35.875,0,0,1,3.459-9.627,1.387,1.387,0,0,1,1.224-.7h24.884a1.361,1.361,0,0,1,1.222.7,38.727,38.727,0,0,1,3.328,9.546,15.615,15.615,0,0,0,10.084,11.359,81.369,81.369,0,0,1,8.046,3.33,15.5,15.5,0,0,0,15.038-.971,36.371,36.371,0,0,1,9.255-4.362,1.385,1.385,0,0,1,1.355.369l17.6,17.6a1.355,1.355,0,0,1,.37,1.351,38.677,38.677,0,0,1-4.4,9.109,15.61,15.61,0,0,0-.9,15.174,81.314,81.314,0,0,1,3.34,8.041,15.484,15.484,0,0,0,11.314,9.935,36.356,36.356,0,0,1,9.627,3.459,1.385,1.385,0,0,1,.7,1.222Zm-98.364-76.885a64.5,64.5,0,1,0,64.505,64.5A64.578,64.578,0,0,0,350.565,328.026Zm0,115.009A50.5,50.5,0,1,1,401.07,392.53,50.561,50.561,0,0,1,350.565,443.035Z"/></svg>
