<?xml version="1.0" encoding="UTF-8"?>
<svg xmlns="http://www.w3.org/2000/svg" id="Layer_1" data-name="Layer 1" viewBox="0 0 64 64" width="512" height="512"><path d="M32,46A14,14,0,1,0,18,32,14.01572,14.01572,0,0,0,32,46Zm0-18a1,1,0,1,1,1-1A1.00067,1.00067,0,0,1,32,28Zm0-8a11.99147,11.99147,0,0,1,5,22.89471V35.41406l.71466-.71466A2.96548,2.96548,0,0,0,39,35a3,3,0,1,0-3-3,2.96548,2.96548,0,0,0,.3006,1.28534L35.293,34.293A.99928.99928,0,0,0,35,35v8.60516a11.90589,11.90589,0,0,1-2,.34418V29.81573a3.00011,3.00011,0,1,0-2-.00006V43.94934a11.90589,11.90589,0,0,1-2-.34418V35a.99928.99928,0,0,0-.293-.707L27.6994,33.28534A2.96548,2.96548,0,0,0,28,32a3,3,0,1,0-3,3,2.96548,2.96548,0,0,0,1.28534-.3006L27,35.41406v7.48065A11.99147,11.99147,0,0,1,32,20Zm6,12a1,1,0,1,1,1,1A1.00067,1.00067,0,0,1,38,32ZM26,32a1,1,0,1,1-1-1A1.00067,1.00067,0,0,1,26,32Z"/><path d="M14.543,26.457a.92653.92653,0,0,1-.86524.69238H12.37891a1,1,0,0,0-.98145.8086,20.75134,20.75134,0,0,0,0,8.084,1,1,0,0,0,.98145.8086h1.29882a.92653.92653,0,0,1,.86524.69238,18.30617,18.30617,0,0,0,1.19531,2.87793.92616.92616,0,0,1-.12207,1.10351l-.92383.92383a.99876.99876,0,0,0-.12207,1.26563,21.00207,21.00207,0,0,0,5.71582,5.71582.99777.99777,0,0,0,1.26563-.12207l.9248-.92481a.92753.92753,0,0,1,1.10352-.12109A18.28815,18.28815,0,0,0,26.457,49.457a.92653.92653,0,0,1,.69238.86524v1.29882a1,1,0,0,0,.8086.98145,20.75134,20.75134,0,0,0,8.084,0,1,1,0,0,0,.8086-.98145V50.32227A.92653.92653,0,0,1,37.543,49.457a18.28815,18.28815,0,0,0,2.877-1.19531.92782.92782,0,0,1,1.10449.12207l.92383.92383a.99789.99789,0,0,0,1.26563.12207,21.00207,21.00207,0,0,0,5.71582-5.71582.99876.99876,0,0,0-.12207-1.26563l-.92481-.9248A.92686.92686,0,0,1,48.2627,40.419,18.29681,18.29681,0,0,0,49.457,37.543a.92653.92653,0,0,1,.86524-.69238h1.29882a1,1,0,0,0,.98145-.8086,20.75134,20.75134,0,0,0,0-8.084,1,1,0,0,0-.98145-.8086H50.32227A.92653.92653,0,0,1,49.457,26.457a18.30617,18.30617,0,0,0-1.19531-2.87793.92764.92764,0,0,1,.12207-1.10449l.92383-.92285a.99986.99986,0,0,0,.12207-1.26563,21.00207,21.00207,0,0,0-5.71582-5.71582.99911.99911,0,0,0-1.26563.12207l-.9248.92481a.92646.92646,0,0,1-1.10449.12011A18.29681,18.29681,0,0,0,37.543,14.543a.92653.92653,0,0,1-.69238-.86524V12.37891a1,1,0,0,0-.8086-.98145,20.852,20.852,0,0,0-8.084,0,1,1,0,0,0-.8086.98145v1.29882a.92653.92653,0,0,1-.69238.86524,18.30617,18.30617,0,0,0-2.87793,1.19531.92122.92122,0,0,1-1.10351-.12207l-.92383-.92383a.999.999,0,0,0-1.26563-.12207,21.00207,21.00207,0,0,0-5.71582,5.71582.99986.99986,0,0,0,.12207,1.26563l.92383.92285a.92861.92861,0,0,1,.12109,1.10644A18.29681,18.29681,0,0,0,14.543,26.457Zm1.90625.60547a16.30906,16.30906,0,0,1,1.0625-2.55957,2.928,2.928,0,0,0-.48145-3.44238l-.32812-.32813a18.98309,18.98309,0,0,1,4.03027-4.03125l.32813.32813a2.92588,2.92588,0,0,0,3.44043.4834,16.31837,16.31837,0,0,1,2.56152-1.06348,2.92993,2.92993,0,0,0,2.08691-2.77149v-.458a18.72381,18.72381,0,0,1,5.70118,0v.458a2.92993,2.92993,0,0,0,2.08691,2.77149,16.30906,16.30906,0,0,1,2.55957,1.0625,2.92376,2.92376,0,0,0,3.44141-.48145l.3291-.3291a18.98309,18.98309,0,0,1,4.03027,4.03125l-.32812.32813A2.92718,2.92718,0,0,0,46.4873,24.501a16.31837,16.31837,0,0,1,1.06348,2.56152,2.92993,2.92993,0,0,0,2.77149,2.08691h.458a18.60043,18.60043,0,0,1,0,5.70118h-.458a2.92993,2.92993,0,0,0-2.77149,2.08691,16.30906,16.30906,0,0,1-1.0625,2.55957,2.92609,2.92609,0,0,0,.48145,3.44141l.3291.3291a19.01038,19.01038,0,0,1-4.03125,4.03125l-.32813-.32813a2.9288,2.9288,0,0,0-3.4414-.48437,16.12326,16.12326,0,0,1-2.56055,1.06445,2.92993,2.92993,0,0,0-2.08691,2.77149v.458a18.72381,18.72381,0,0,1-5.70118,0v-.458a2.92993,2.92993,0,0,0-2.08691-2.77149A16.12326,16.12326,0,0,1,24.502,46.48633a2.92945,2.92945,0,0,0-3.44043.4834l-.3291.3291a19.01038,19.01038,0,0,1-4.03125-4.03125l.32813-.32813a2.92566,2.92566,0,0,0,.4834-3.44043,16.31837,16.31837,0,0,1-1.06348-2.56152,2.92993,2.92993,0,0,0-2.77149-2.08691h-.458a18.60043,18.60043,0,0,1,0-5.70118h.458A2.92993,2.92993,0,0,0,16.44922,27.0625Z"/><path d="M59.13281,36.99707a.99779.99779,0,0,0,.876-.582l2.7998-6.0957a1.00122,1.00122,0,0,0-.07617-.97071.959.959,0,0,0-.86621-.44531l-2.0564.068A27.90229,27.90229,0,0,0,35.92889,4.29681a3.98975,3.98975,0,0,0-7.85723-.00567A28.00637,28.00637,0,0,0,4.69336,25.77832l1.95117.44336A26.00072,26.00072,0,0,1,28.232,6.28949a3.97437,3.97437,0,0,0,7.53467.00433A25.90671,25.90671,0,0,1,57.80719,29.03748l-1.938.06408a.99984.99984,0,0,0-.8457,1.47559l3.19726,5.89746a.999.999,0,0,0,.87891.52344C59.11035,36.99805,59.12207,36.99805,59.13281,36.99707ZM32,7a2,2,0,1,1,2-2A2.0026,2.0026,0,0,1,32,7ZM57.55273,31.04688l2.7627-.0918-1.29,2.80859Z"/><path d="M1.43164,36.81055a.99883.99883,0,0,0,.80762.41015c.02539,0,.05078-.001.07715-.00293l2.16186-.16626A27.958,27.958,0,0,0,28.07117,59.7041a3.98971,3.98971,0,0,0,7.85736.00275A27.88294,27.88294,0,0,0,58.85352,39.957l-1.918-.56836A25.88722,25.88722,0,0,1,35.76813,57.71094a3.97436,3.97436,0,0,0-7.53491-.0044A25.955,25.955,0,0,1,6.4834,36.89734l1.81445-.13953a.99984.99984,0,0,0,.78027-1.51172L5.627,29.49414a.98545.98545,0,0,0-.93457-.48242.99883.99883,0,0,0-.84863.62012L1.31348,35.84375A1.00064,1.00064,0,0,0,1.43164,36.81055ZM32,57a2,2,0,1,1-2,2A2.0026,2.0026,0,0,1,32,57ZM4.94141,32.23828,6.53027,34.8877l-2.75488.21191Z"/></svg>
