<svg id="Layer_1" enable-background="new 0 0 66 66" height="512" viewBox="0 0 66 66" width="512" xmlns="http://www.w3.org/2000/svg"><g><path d="m45.7314 4.878c0-2.1387-1.7402-3.878-3.8789-3.878h-17.7002c-2.1387 0-3.8779 1.7393-3.8779 3.8779v2.7314 8.873h-10.7461c-2.7402 0-4.9697 2.2295-4.9697 4.9697v30.0166c0 2.7402 2.2295 4.9697 4.9697 4.9697h16.6643c1.6086 3.0492 1.626 4.2976.076 6.5615h-2.9102c-.5527 0-1 .4473-1 1s.4473 1 1 1h3.4297 12.4316.0195 3.4102c.5527 0 1-.4473 1-1s-.4473-1-1-1h-2.8988c-1.8256-2.6797-1.8232-3.886-.0023-6.5615h16.7273c2.7354 0 4.96-2.2295 4.96-4.9697v-4.1975c.0003-.0103.0059-.0188.0059-.0291s-.0056-.0188-.0059-.0291v-25.761c0-2.7402-2.2246-4.9697-4.96-4.9697h-10.7442v-8.873zm-23.457 0c0-1.0352.8428-1.878 1.8779-1.878h17.7002c1.0361 0 1.8789.8428 1.8789 1.8779v1.7314h-21.457zm0 17.2695c.0048-.0398.0234-.075.0234-.1162s-.0186-.0764-.0234-.1162v-13.3057h21.457v24.4307h-21.457zm0 12.8926h21.457v2.8604c0 1.0352-.8428 1.8779-1.8789 1.8779h-17.7002c-1.0352 0-1.8779-.8428-1.8779-1.8779zm6.333 27.9599c1.2051-2.2599 1.0223-4.0325-.1761-6.5615h8.9534c-1.3481 2.3896-1.3474 4.1709.004 6.5615zm30.8281-11.5312c0 1.6377-1.3281 2.9697-2.96 2.9697h-17.2136c-.0144-.0006-.0277-.0059-.0422-.0059h-12.4316c-.0153 0-.0295.0051-.0447.0059h-17.2151c-1.6377 0-2.9697-1.332-2.9697-2.9697v-3.2266h52.877v3.2266zm-2.9599-32.9864c1.6318 0 2.96 1.332 2.96 2.9697v24.79h-52.877v-24.79c0-1.6377 1.332-2.9697 2.9697-2.9697h10.7461v2.7177c-.2801.1771-.4766.475-.4766.8312s.1965.6541.4766.8311v11.1777 3.8604c0 2.1387 1.7393 3.8779 3.8779 3.8779h17.7002c2.1387 0 3.8789-1.7393 3.8789-3.8779v-3.8604-11.1599c.2953-.1736.5029-.4812.5029-.8489s-.2076-.6753-.5029-.849v-2.6998h10.7442z"/><circle cx="33.558" cy="37.25" r="1.279"/><path d="m38.4229 18.6367c-.1529-2.8546-2.5275-5.1318-5.4248-5.1318-2.9023 0-5.283 2.2977-5.416 5.166-2.1221.2041-3.3662 1.3945-3.3662 3.2725 0 1.8193 1.4795 3.2988 3.2988 3.2988h10.9756c1.8193 0 3.2998-1.4795 3.2998-3.2988-.0001-1.957-1.2501-3.1709-3.3672-3.3067zm.0673 4.6055h-10.9756c-.7158 0-1.2988-.583-1.2988-1.2988 0-.3896 0-1.3037 2.0391-1.3037.3997.0017.827.0708 1.1787-.3926.165-.2197.2334-.4971.1885-.7686-.3451-2.0704 1.27-3.9736 3.376-3.9736 2.11 0 3.7314 1.8987 3.3857 3.9746-.083.4961.2158.9766.6982 1.1211.2779.0847.4731.0234.9355.0234 1.7725 0 1.7725.8584 1.7725 1.3193 0 .7159-.583 1.2989-1.2998 1.2989z"/><path d="m48.1406 23.0313h.9688c.5527 0 1-.4473 1-1s-.4473-1-1-1h-.9688c-.5527 0-1 .4473-1 1s.4473 1 1 1z"/><path d="m51.6035 22.9434c.1572.3467.5068.5879.9121.5879.5527 0 1-.4473 1-1v-.5c0-.5527-.4473-1-1-1h-.5c-.5527 0-1 .4473-1 1 0 .4053.2412.7549.5879.9121z"/><path d="m51.5156 29.458c0 .5527.4473 1 1 1s1-.4473 1-1v-.8662c0-.5527-.4473-1-1-1s-1 .4473-1 1z"/><path d="m52.5156 26.9951c.5527 0 1-.4473 1-1v-.8662c0-.5527-.4473-1-1-1s-1 .4473-1 1v.8662c0 .5528.4473 1 1 1z"/><path d="m52.5156 31.0547c-.3677 0-.6752.2076-.8489.5029h-2.4294c-.5527 0-1 .4473-1 1v6.3604c0 .5527.4473 1 1 1h6.3594c.5527 0 1-.4473 1-1v-6.3604c0-.5527-.4473-1-1-1h-2.2321c-.1737-.2952-.4812-.5029-.849-.5029zm2.0811 6.8633h-4.3594v-4.3604h4.3594z"/><path d="m13.5166 27.5918c-.5527 0-1 .4473-1 1v.8662c0 .5527.4473 1 1 1s1-.4473 1-1v-.8662c0-.5527-.4473-1-1-1z"/><path d="m14.5166 25.1289c0-.5527-.4473-1-1-1s-1 .4473-1 1v.8662c0 .5527.4473 1 1 1s1-.4473 1-1z"/><path d="m12.5166 22.5313c0 1.0723 1.4691 1.3889 1.9121.4121.3467-.1572.5879-.5068.5879-.9121 0-1.2217-1.3998-.9702-1.5-1-1.2216 0-.9701 1.3998-1 1.5z"/><path d="m17.8916 21.0313h-.9688c-.5527 0-1 .4473-1 1s.4473 1 1 1h.9688c.5527 0 1-.4473 1-1s-.4473-1-1-1z"/><path d="m16.7949 31.5576h-2.4293c-.1737-.2953-.4813-.5029-.849-.5029s-.6752.2076-.8489.5029h-2.2321c-.5527 0-1 .4473-1 1v6.3604c0 .5527.4473 1 1 1h6.3594c.5527 0 1-.4473 1-1v-6.3604c-.0001-.5527-.4473-1-1.0001-1zm-1 6.3604h-4.3594v-4.3604h4.3594z"/></g></svg>