<svg id="Layer_1" enable-background="new 0 0 512 512" viewBox="0 0 512 512" xmlns="http://www.w3.org/2000/svg"><g><path d="m203.1 224.6c-4.4 0-8-3.6-8-8s3.6-8 8-8h14.7c4.4 0 8 3.6 8 8s-3.6 8-8 8zm92.7 73.4c-4.4 0-8-3.6-8-8s3.6-8 8-8h14.7c4.4 0 8 3.6 8 8s-3.6 8-8 8zm0-24c-4.4 0-8-3.6-8-8s3.6-8 8-8h14.7c4.4 0 8 3.6 8 8s-3.6 8-8 8zm0-49.4c-4.4 0-8-3.6-8-8s3.6-8 8-8h14.7c4.4 0 8 3.6 8 8s-3.6 8-8 8zm-92.7 73.4c-4.4 0-8-3.6-8-8s3.6-8 8-8h14.7c4.4 0 8 3.6 8 8s-3.6 8-8 8zm0-24c-4.4 0-8-3.6-8-8s3.6-8 8-8h14.7c4.4 0 8 3.6 8 8s-3.6 8-8 8zm128.2-82.3h-66.5v126.3h66.5zm-74.5-16h82.5c4.4 0 8 3.6 8 8v17.5h20.5c4.4 0 8 3.6 8 8v147.1c0 4.4-3.6 8-8 8h-20.5v15.2c0 3.7-2.5 6.8-5.9 7.7l-9.8 3.7-2.9 8.5c-1.2 2.8-2.5 5.5-3.9 8.1l4.6 10.2c1.4 3.1.7 6.6-1.6 8.9l-13.9 13.9c-2.6 2.5-6.4 3-9.4 1.4l-9.8-4.5c-5.2 2.9-10.8 5.2-16.6 6.9l-3.9 10.5c-1.2 3.2-4.2 5.2-7.5 5.2h-19.7c-3.7 0-6.8-2.5-7.7-5.8l-3.7-9.8-8.5-2.9c-2.8-1.2-5.5-2.5-8.1-3.9l-10.2 4.6c-3.1 1.4-6.7.7-8.9-1.6l-13.9-13.9c-2.6-2.6-3-6.4-1.4-9.4l4.4-9.8c-1.4-2.6-2.7-5.3-3.9-8.1-1.1-2.7-2.1-5.6-2.9-8.5l-10.5-3.9c-3.2-1.2-5.2-4.2-5.2-7.5v-15.2h-20.5c-4.4 0-8-3.6-8-8v-147.1c0-4.4 3.6-8 8-8h20.5v-17.5c0-4.4 3.6-8 8-8zm90.5 41.5v108.9c0 4.4-3.6 8-8 8h-165c-4.4 0-8-3.6-8-8v-108.9h-12.5v131.1h206.1v-131.1zm-98.5-25.5h-66.5v126.3h66.5zm79.7 172.6h-28.1c3.3 26.1-17.2 49.3-43.5 49.3-26.4 0-46.8-23.1-43.6-49.3h-28.1l-2.8 1v8.6l9.2 3.5c2.4.9 4.4 3 5 5.8.8 3.4 1.8 6.8 3.2 10.1 1.5 3.4 2.9 6.2 5 9.4 1.4 2.2 1.7 5 .5 7.5l-4.1 9 6.1 6.1 8.6-3.9c2.4-1.2 5.4-1.2 7.9.4 3 1.9 6.2 3.6 9.5 4.9 3.2 1.3 6.6 2.4 10 3.2 2.6.5 4.9 2.4 5.9 5l3.4 9.2h8.6l3.5-9.2c.9-2.4 3-4.4 5.8-5 6.9-1.5 13.6-4.3 19.6-8.1 2.2-1.4 5-1.7 7.5-.5l9 4.1 6.1-6.1-3.9-8.6c-1.2-2.4-1.2-5.4.4-7.9 1.9-3 3.6-6.2 4.9-9.4 1.3-3.2 2.4-6.6 3.2-10 .5-2.6 2.4-4.9 5-5.9l9.2-3.5v-8.6zm-44.3 0h-54.8c-3.3 17.2 9.8 33.3 27.4 33.3s30.7-16.1 27.4-33.3zm-78.5-203.7c-4.4 0-8-3.6-8-8s3.6-8 8-8h43.1v-21.9h-6.1c-11.8 0-21.3-9.6-21.3-21.4v-28.3c0-11.8 9.5-21.3 21.4-21.3h28.3c11.8 0 21.3 9.5 21.3 21.3v28.3h.1c0 11.8-9.6 21.4-21.4 21.4h-6.2v21.9h43.1c4.4 0 8 3.6 8 8s-3.6 8-8 8zm212.6 128.4h-22.5c-4.4 0-8-3.6-8-8v-40.5c0-4.4 3.6-8 8-8s8 3.6 8 8v32.5h14.5v-6.2c0-11.8 9.6-21.4 21.4-21.4h28.3c11.8 0 21.3 9.5 21.3 21.3v28.3c0 11.8-9.6 21.4-21.3 21.4h-28.3c-11.8 0-21.4-9.6-21.4-21.3zm-323.9-15.9h15.4v-32.5c0-4.4 3.6-8 8-8s8 3.6 8 8v40.5c0 4.4-3.6 8-8 8h-23.4v6.2c0 11.8-9.6 21.4-21.4 21.4h-28.3c-11.8 0-21.4-9.6-21.4-21.4v-28.3c0-11.8 9.6-21.4 21.4-21.4h28.3c11.8 0 21.4 9.6 21.4 21.4zm242.3-112.5c-4.4 0-8-3.6-8-8s3.6-8 8-8h27.6c6.1 0 11.9 1.4 17.1 3.9l17.1-17c-1-2.5-1.6-5.2-1.6-8.1v-28.3c0-11.7 9.6-21.3 21.4-21.3h28.3c11.8 0 21.4 9.6 21.4 21.4v28.3c0 11.8-9.6 21.4-21.3 21.4h-28.3c-3.1 0-6-.7-8.7-1.8l-15.4 15.4c6 6.9 9.6 16 9.6 25.8v27.6c0 4.4-3.6 8-8 8s-8-3.6-8-8v-27.6c0-12.9-10.6-23.5-23.5-23.5h-27.7zm-211 51.1c0 4.4-3.6 8-8 8s-8-3.6-8-8v-27.6c0-9.8 3.7-18.9 9.7-25.8l-15.4-15.4c-2.7 1.2-5.6 1.8-8.7 1.8h-28.3c-11.7 0-21.3-9.6-21.3-21.4v-28.2c0-11.8 9.6-21.4 21.4-21.4h28.3c11.8 0 21.4 9.6 21.4 21.3v28.3c0 2.8-.6 5.6-1.6 8.1l17.1 17c5.2-2.5 11-3.9 17.1-3.9h27.6c4.4 0 8 3.6 8 8s-3.6 8-8 8h-27.6c-12.9 0-23.5 10.6-23.5 23.5v27.7zm326.3-88.3v-28.3c0-2.9-2.4-5.4-5.4-5.4h-28.3c-2.9 0-5.4 2.4-5.4 5.4v28.3c0 2.9 2.5 5.4 5.4 5.4h28.3c2.9 0 5.4-2.5 5.4-5.4zm-214.7-50.4v28.3c0 2.9 2.4 5.4 5.4 5.4h28.3c2.9 0 5.4-2.4 5.4-5.4v-28.3c0-2.9-2.5-5.4-5.4-5.4h-28.3c-2.9 0-5.4 2.4-5.4 5.4zm-175.7 22.1v28.3c0 2.9 2.4 5.4 5.4 5.4h28.3c2.9 0 5.4-2.4 5.4-5.4v-28.3c0-2.9-2.5-5.4-5.4-5.4h-28.3c-3 .1-5.4 2.5-5.4 5.4zm-22.3 171.8v28.3c0 2.9 2.4 5.4 5.4 5.4h28.3c2.9 0 5.4-2.4 5.4-5.4v-28.3c0-2.9-2.4-5.4-5.4-5.4h-28.3c-2.9 0-5.4 2.5-5.4 5.4zm400.4 33.7h28.3c3 0 5.4-2.5 5.4-5.4v-28.3c0-2.9-2.5-5.4-5.4-5.4h-28.3c-2.9 0-5.4 2.4-5.4 5.4v28.3c0 2.9 2.5 5.4 5.4 5.4z"/></g></svg>