<?xml version="1.0" encoding="iso-8859-1"?>
<!-- Generator: Adobe Illustrator 19.0.0, SVG Export Plug-In . SVG Version: 6.00 Build 0)  -->
<svg version="1.1" id="Capa_1" xmlns="http://www.w3.org/2000/svg" xmlns:xlink="http://www.w3.org/1999/xlink" x="0px" y="0px"
	 viewBox="0 0 512 512" style="enable-background:new 0 0 512 512;" xml:space="preserve">
<g>
	<g>
		<g>
			<path d="M247.467,42.667h42.667c4.71,0,8.533-3.823,8.533-8.533c0-4.71-3.823-8.533-8.533-8.533h-42.667
				c-4.71,0-8.533,3.823-8.533,8.533C238.933,38.844,242.756,42.667,247.467,42.667z"/>
			<path d="M213.333,42.667h8.533c4.71,0,8.533-3.823,8.533-8.533c0-4.71-3.823-8.533-8.533-8.533h-8.533
				c-4.71,0-8.533,3.823-8.533,8.533C204.8,38.844,208.623,42.667,213.333,42.667z"/>
			<path d="M435.2,170.667h68.267c4.719,0,8.533-3.823,8.533-8.533V93.867c0-4.71-3.814-8.533-8.533-8.533H435.2
				c-4.719,0-8.533,3.823-8.533,8.533v29.367l-25.597,15.752V33.801C401.07,15.164,385.906,0,367.261,0H144.737
				c-18.645,0-33.801,15.164-33.801,33.801v25.865c0,0.023-0.003,0.045-0.003,0.068s0.003,0.045,0.003,0.068v79.189l-25.603-15.756
				V93.867c0-4.71-3.823-8.533-8.533-8.533H8.533C3.823,85.333,0,89.156,0,93.867v68.267c0,4.71,3.823,8.533,8.533,8.533H76.8
				c4.71,0,8.533-3.823,8.533-8.533v-18.864l25.603,15.756v198.638l-25.603,18.288V358.4c0-4.71-3.823-8.533-8.533-8.533H8.533
				C3.823,349.867,0,353.69,0,358.4v68.267c0,4.71,3.823,8.533,8.533,8.533H76.8c4.71,0,8.533-3.823,8.533-8.533v-29.74
				l25.603-18.288v56.494c0,0.023-0.003,0.045-0.003,0.068s0.003,0.045,0.003,0.068V478.2c0,18.637,15.155,33.8,33.801,33.8h222.524
				c18.645,0,33.809-15.164,33.809-33.8v-99.557l25.597,18.283v29.74c0,4.71,3.814,8.533,8.533,8.533h68.267
				c4.719,0,8.533-3.823,8.533-8.533V358.4c0-4.71-3.814-8.533-8.533-8.533H435.2c-4.719,0-8.533,3.823-8.533,8.533v17.551
				l-25.597-18.283V159.021l25.597-15.752v18.864C426.667,166.844,430.481,170.667,435.2,170.667z M68.267,153.6h-51.2v-51.2h51.2
				V153.6z M68.267,418.133h-51.2v-51.2h51.2V418.133z M443.733,366.933h51.2v51.2h-51.2V366.933z M144.737,17.067h222.524
				c9.233,0,16.742,7.509,16.742,16.734V51.2h-256V33.801C128.003,24.576,135.504,17.067,144.737,17.067z M128.003,68.267h256
				v81.221l-57.902,35.632C308.896,165.795,283.846,153.6,256,153.6c-27.846,0-52.896,12.195-70.102,31.52l-57.895-35.628V68.267z
				 M256,324.267c-42.342,0-76.8-34.458-76.8-76.8s34.458-76.8,76.8-76.8s76.8,34.458,76.8,76.8S298.342,324.267,256,324.267z
				 M128.003,169.528l47.707,29.358c-8.613,14.181-13.577,30.812-13.577,48.58c0,22.241,7.782,42.697,20.759,58.799l-54.889,39.207
				V169.528z M128.003,478.2v-34.466h105.453c-7.099,6.259-11.59,15.411-11.59,25.6c0,10.189,4.49,19.341,11.59,25.6h-88.719
				C135.504,494.933,128.003,487.424,128.003,478.2z M256,486.4c-9.412,0-17.067-7.654-17.067-17.067
				c0-9.412,7.654-17.067,17.067-17.067c9.412,0,17.067,7.654,17.067,17.067C273.067,478.746,265.412,486.4,256,486.4z
				 M367.261,494.933h-88.717c7.099-6.259,11.59-15.411,11.59-25.6c0-10.189-4.49-19.341-11.59-25.6h105.46V478.2
				C384.003,487.424,376.494,494.933,367.261,494.933z M384.003,426.667h-256v-60.219l66.897-47.784
				c16.432,14.122,37.786,22.67,61.099,22.67s44.667-8.548,61.099-22.67l66.904,47.789V426.667z M384.003,345.477l-54.896-39.211
				c12.977-16.103,20.759-36.558,20.759-58.799c0-17.768-4.964-34.399-13.577-48.58l47.714-29.362V345.477z M443.733,102.4h51.2
				v51.2h-51.2V102.4z"/>
			<path d="M244.966,207.3c-3.337-3.337-8.73-3.337-12.066,0l-34.133,34.133c-3.337,3.337-3.337,8.73,0,12.066l34.133,34.133
				c1.664,1.664,3.849,2.5,6.033,2.5c2.185,0,4.369-0.836,6.033-2.5c3.336-3.337,3.336-8.73,0-12.066l-28.1-28.1l28.1-28.1
				C248.303,216.03,248.303,210.637,244.966,207.3z"/>
			<path d="M313.233,241.434L279.1,207.3c-3.336-3.337-8.73-3.337-12.066,0c-3.337,3.337-3.337,8.73,0,12.066l28.1,28.1l-28.1,28.1
				c-3.337,3.336-3.337,8.73,0,12.066c1.664,1.664,3.849,2.5,6.033,2.5c2.185,0,4.369-0.836,6.033-2.5l34.133-34.133
				C316.57,250.163,316.57,244.77,313.233,241.434z"/>
		</g>
	</g>
</g>
<g>
</g>
<g>
</g>
<g>
</g>
<g>
</g>
<g>
</g>
<g>
</g>
<g>
</g>
<g>
</g>
<g>
</g>
<g>
</g>
<g>
</g>
<g>
</g>
<g>
</g>
<g>
</g>
<g>
</g>
</svg>
