<svg id="Layer_1" viewBox="0 0 512 512" xmlns="http://www.w3.org/2000/svg" data-name="Layer 1"><path d="m98.527 341.671a44.793 44.793 0 0 0 0 63.289 6 6 0 0 1 -8.486 8.491 56.813 56.813 0 0 1 0-80.257 6 6 0 0 1 8.486 8.477zm-34.444 97.729a6 6 0 0 0 8.486-8.481 81.558 81.558 0 0 1 0-115.206 6 6 0 0 0 -8.486-8.481 93.561 93.561 0 0 0 0 132.168zm-17.473 17.482a6 6 0 1 1 -8.486 8.481c-50.751-50.751-50.751-133.343 0-184.094a6 6 0 1 1 8.486 8.49 118.315 118.315 0 0 0 0 167.123zm345.29-218.582a11.681 11.681 0 0 1 -11.67 11.669h-85.953l.034-58.708 23.458-13.539a17.133 17.133 0 1 0 -5.821-12.839 16.7 16.7 0 0 0 .17 2.24l-26.8 15.477a5.99 5.99 0 0 0 -3 5.189l-.033 62.18h-4.3a11.681 11.681 0 0 1 -11.675-11.669v-102.248a11.688 11.688 0 0 1 11.67-11.67h85.96v58.718l-23.44 13.535a17.125 17.125 0 1 0 5.651 10.585l26.788-15.458a6.006 6.006 0 0 0 3-5.2v-62.18h4.288a11.688 11.688 0 0 1 11.67 11.67v102.248zm12-45.12h25.83a17.151 17.151 0 1 0 0-12h-25.83v-28.84h9.622a17.147 17.147 0 1 0 0-12h-9.622v-4.288a23.7 23.7 0 0 0 -23.671-23.67h-4.289v-9.609a17.152 17.152 0 1 0 -12 0v9.609h-28.84v-25.821a17.151 17.151 0 1 0 -12 0v25.821h-28.832v-9.609a17.149 17.149 0 1 0 -12 0v9.609h-4.288a23.7 23.7 0 0 0 -23.671 23.67v4.288h-9.618a17.152 17.152 0 1 0 0 12h9.618v28.84h-25.826a17.152 17.152 0 1 0 0 12h25.826v28.831h-9.618a17.161 17.161 0 1 0 0 12h9.618v4.289a23.7 23.7 0 0 0 23.671 23.67h4.3v9.623a17.149 17.149 0 1 0 12 0l.009-9.623h28.811v25.83a17.161 17.161 0 1 0 12 0v-25.829h28.84v9.623a17.151 17.151 0 1 0 12 0v-9.623h4.288a23.7 23.7 0 0 0 23.672-23.671v-4.288h9.622a17.152 17.152 0 1 0 0-12h-9.622v-28.831zm55.27 287.47a356.614 356.614 0 0 1 -4.788-142.659 87.529 87.529 0 0 1 15.081-37.081c40.609-58.7 40.5-137.551-.265-196.208a172.462 172.462 0 0 0 -198.615-64.138 2.632 2.632 0 0 1 -.254.076 161.728 161.728 0 0 0 -112.329 184.151 6 6 0 0 1 -.807 4.25l-51.563 83.021a.358.358 0 0 0 -.023.457c.1.213.155.255.386.274l51.03 4.481a5.991 5.991 0 0 1 5.477 5.967v47.888h9.231l6.939-19.085a6 6 0 0 1 5.637-3.953h.042a6.009 6.009 0 0 1 5.628 4.028l8.84 25.374 21.552-61.86a6 6 0 0 1 11.307-.081l20.275 55.748 7.005-19.255a6 6 0 0 1 5.637-3.953h.042a6 6 0 0 1 5.623 4.028l6.627 19.01h32.034a6 6 0 0 1 0 12h-36.3a6.005 6.005 0 0 1 -5.67-4.019l-2.481-7.128-6.882 18.93a6 6 0 0 1 -11.279 0l-20.156-55.421-21.673 62.208a6 6 0 0 1 -11.331 0l-8.962-25.718-2.623 7.2a6 6 0 0 1 -5.637 3.949h-13.425v25.161a19 19 0 0 0 18.977 18.982h56.152a18.005 18.005 0 0 1 17.911 15.986l4.193 36.963a.448.448 0 0 0 .467.42l198.515.6c.227-.01.241-.019.368-.179a.348.348 0 0 0 .09-.411zm20.151-172.92a184.2 184.2 0 0 0 -212.596-278.53 173.694 173.694 0 0 0 -120.937 195.463l-50.356 81.068a12.477 12.477 0 0 0 9.506 19.011l45.557 4v42.388h-35.34a6 6 0 0 0 0 12h35.345v25.161a31.018 31.018 0 0 0 30.978 30.982h56.152a5.94 5.94 0 0 1 5.986 5.34l4.194 36.958a12.459 12.459 0 0 0 12.358 11.071l198.506.6h.042a12.479 12.479 0 0 0 12.137-15.368 344.619 344.619 0 0 1 -4.637-137.891 76.406 76.406 0 0 1 13.104-32.252z" fill-rule="evenodd"/></svg>