<svg id="responsive" viewBox="0 0 64 64" xmlns="http://www.w3.org/2000/svg"><path d="m31 40c-.553 0-1 .447-1 1s.447 1 1 1h2c.553 0 1-.447 1-1s-.447-1-1-1z"/><path d="m56 3h-48c-2.757 0-5 2.243-5 5v33c0 2.757 2.243 5 5 5h19v5h-9.764c-1.144 0-2.172.636-2.684 1.658l-2 4c-.469.937-.419 2.028.131 2.919.551.891 1.505 1.423 2.553 1.423h20.764c.553 0 1-.447 1-1s-.447-1-1-1h-20.764c-.504 0-.763-.332-.851-.475-.089-.143-.27-.522-.044-.973l2-4c.17-.341.513-.553.895-.553h9.764v3c0 .553.447 1 1 1h8c.553 0 1-.447 1-1v-11c0-.553-.447-1-1-1h-28c-1.654 0-3-1.346-3-3v-3h31c.553 0 1-.447 1-1s-.447-1-1-1h-31v-27.999c0-1.654 1.346-3 3-3h48c1.654 0 3 1.346 3 3v14c0 .553.447 1 1 1s1-.447 1-1v-14c0-2.757-2.243-5-5-5zm-27 43h6v9h-6z"/><path d="m58 25h-16c-1.654 0-3 1.346-3 3v30c0 1.654 1.346 3 3 3h16c1.654 0 3-1.346 3-3 0-.553-.447-1-1-1s-1 .447-1 1-.448 1-1 1h-16c-.552 0-1-.448-1-1v-30c0-.552.448-1 1-1h16c.552 0 1 .448 1 1v26c0 .553.447 1 1 1s1-.447 1-1v-26c0-1.654-1.346-3-3-3z"/><path d="m49 55c-.553 0-1 .447-1 1s.447 1 1 1h2c.553 0 1-.447 1-1s-.447-1-1-1z"/><path d="m57 30c0-.553-.447-1-1-1h-12c-.553 0-1 .447-1 1s.447 1 1 1h11v6h-10v-3c0-.553-.447-1-1-1s-1 .447-1 1v4c0 .553.447 1 1 1h12c.553 0 1-.447 1-1z"/><path d="m56 41h-12c-.553 0-1 .447-1 1s.447 1 1 1h12c.553 0 1-.447 1-1s-.447-1-1-1z"/><path d="m56 45h-12c-.553 0-1 .447-1 1s.447 1 1 1h12c.553 0 1-.447 1-1s-.447-1-1-1z"/><path d="m57 50c0-.553-.447-1-1-1h-12c-.553 0-1 .447-1 1s.447 1 1 1h12c.553 0 1-.447 1-1z"/><path d="m35 10c0-.553-.447-1-1-1h-24c-.553 0-1 .447-1 1s.447 1 1 1h23v11h-22v-8c0-.553-.447-1-1-1s-1 .447-1 1v9c0 .553.447 1 1 1h24c.553 0 1-.447 1-1z"/><path d="m34 26h-24c-.553 0-1 .447-1 1s.447 1 1 1h24c.553 0 1-.447 1-1s-.447-1-1-1z"/><path d="m34 30h-24c-.553 0-1 .447-1 1s.447 1 1 1h24c.553 0 1-.447 1-1s-.447-1-1-1z"/><path d="m50 15h4c.553 0 1-.447 1-1s-.447-1-1-1h-4c-.553 0-1 .447-1 1s.447 1 1 1z"/><path d="m50 23h4c.553 0 1-.447 1-1s-.447-1-1-1h-4c-.553 0-1 .447-1 1s.447 1 1 1z"/><path d="m50 11h4c.553 0 1-.447 1-1s-.447-1-1-1h-4c-.553 0-1 .447-1 1s.447 1 1 1z"/><path d="m50 19h4c.553 0 1-.447 1-1s-.447-1-1-1h-4c-.553 0-1 .447-1 1s.447 1 1 1z"/><path d="m40 15h6c.553 0 1-.447 1-1v-4c0-.553-.447-1-1-1h-6c-.553 0-1 .447-1 1v4c0 .553.447 1 1 1zm1-4h4v2h-4z"/><path d="m39 22c0 .553.447 1 1 1h6c.553 0 1-.447 1-1v-4c0-.553-.447-1-1-1h-6c-.553 0-1 .447-1 1zm2-3h4v2h-4z"/></svg>