<svg id="Layer_1" viewBox="0 0 512 512" xmlns="http://www.w3.org/2000/svg" data-name="Layer 1"><path d="m498.06 111.83-76.73-20.55c-3.12-.84-6.44.29-8.41 2.85s-2.2 6.06-.58 8.86l10.04 17.4-71.81 41.48-58.46-33.75v-47.94h20.1c3.23 0 6.15-1.95 7.39-4.94s.55-6.42-1.73-8.71l-56.18-56.18c-3.12-3.12-8.18-3.12-11.3 0l-56.21 56.18c-2.29 2.29-2.97 5.72-1.73 8.71s4.15 4.94 7.39 4.94h20.13v47.94l-58.39 33.7-71.91-41.45 10.05-17.36c1.62-2.8 1.39-6.3-.57-8.87s-5.29-3.69-8.41-2.86l-76.8 20.52c-2.05.55-3.8 1.89-4.86 3.72-1.06 1.84-1.35 4.02-.8 6.07l20.55 76.62c.84 3.12 3.47 5.43 6.67 5.85s6.35-1.12 7.96-3.92l10.06-17.39 73.67 42.46v23.66c-4.62-1.04-9.42-1.6-14.34-1.6-36.04 0-65.37 29.32-65.37 65.37 0 20.03 9.06 37.98 23.29 49.99-35.38 4.18-62.77 31.11-62.77 63.62v69.73c0 4.42 3.58 7.99 7.99 7.99h193.72c4.42 0 7.99-3.58 7.99-7.99v-69.73c0-32.52-27.39-59.44-62.77-63.62 3.7-3.12 7.05-6.64 9.97-10.49l26.69 15.39 60.41 34.89s.04.02.06.03c.28.16.58.31.88.44.02 0 .03.01.05.02.28.11.56.21.86.29.08.02.15.04.23.06.24.06.48.11.72.14.08.01.16.03.24.04.31.04.63.06.95.06s.64-.02.96-.06c.08 0 .15-.02.23-.03.25-.04.5-.09.75-.15l.21-.06c.3-.08.6-.18.88-.3h.02c.31-.13.6-.27.89-.44l.06-.03 60.37-34.89 60.41-34.87c2.47-1.43 4-4.07 4-6.92v-100.29l73.67-42.54 10.06 17.4c1.62 2.8 4.77 4.35 7.97 3.92 3.2-.42 5.84-2.73 6.68-5.86l20.55-76.76c1.14-4.26-1.39-8.65-5.65-9.79zm-242.05 134.95-104.82-60.53 13.89-8.02c.29-.14.57-.31.85-.49l90.08-52 90.23 52.09c.19.12.39.23.59.34l13.99 8.08-104.8 60.53zm-28.09-182.59h-8.81l36.9-36.88 36.89 36.88h-8.79c-4.41 0-7.99 3.58-7.99 7.99v46.71l-16.1-9.29c-2.47-1.43-5.52-1.43-7.99 0l-16.1 9.29v-46.71c0-4.42-3.58-7.99-7.99-7.99zm-173.31 100.74c-3.82-2.2-8.7-.9-10.91 2.92l-4.41 7.62-13.49-50.29 50.38-13.47-4.39 7.58c-1.06 1.84-1.35 4.02-.8 6.07s1.89 3.8 3.73 4.86l70.83 40.83-14.34 8.28s-.04.03-.06.04c-.28.17-.56.35-.82.55-.01.01-.03.02-.04.04-.23.18-.46.38-.67.59-.06.06-.11.12-.17.17-.17.18-.33.36-.48.55-.05.06-.11.13-.16.19-.19.25-.36.51-.52.78 0 0 0 .01-.01.02-.16.28-.29.56-.42.84-.03.08-.06.16-.09.23-.09.23-.17.46-.24.69-.02.08-.05.16-.07.24-.07.29-.14.58-.18.88 0 .02 0 .04-.01.06-.04.33-.06.65-.07.98v.07 20.52l-72.6-41.85zm8.88 147.72c0-27.23 22.15-49.38 49.38-49.38 6.77 0 13.22 1.37 19.1 3.85.08.04.16.07.24.1 17.64 7.54 30.04 25.06 30.04 45.43 0 27.24-22.15 49.41-49.38 49.41s-49.38-22.16-49.38-49.41zm81.86 65.4c31.09 0 56.38 21.63 56.38 48.22v61.74h-22.28v-49.49c0-4.42-3.58-7.99-7.99-7.99s-7.99 3.58-7.99 7.99v49.49h-101.23v-49.49c0-4.42-3.58-7.99-7.99-7.99s-7.99 3.58-7.99 7.99v49.49h-22.25v-61.74c0-26.59 25.29-48.22 56.38-48.22h64.97zm27.62-39.71c3.38-7.89 5.26-16.57 5.26-25.68 0-25.1-14.23-46.93-35.04-57.88v-54.67l104.83 60.53v121.03l-48.42-27.97-26.63-15.35zm139.42 15.36-48.38 27.96v-121.03l104.8-60.53v121.03l-56.41 32.56zm160.32-178.08-4.41-7.62c-2.21-3.82-7.1-5.13-10.92-2.92l-72.6 41.92v-20.74s0-.05 0-.07c0-.32-.02-.65-.06-.97 0-.02 0-.04-.01-.07-.04-.29-.1-.58-.17-.87-.02-.08-.04-.16-.07-.24-.07-.23-.15-.46-.24-.69-.03-.08-.06-.16-.09-.24-.12-.29-.26-.57-.42-.84 0 0 0 0 0-.01-.16-.28-.34-.54-.53-.79-.05-.07-.1-.13-.16-.19-.15-.19-.32-.38-.48-.55-.06-.06-.11-.12-.17-.17-.22-.21-.44-.41-.67-.59-.01-.01-.03-.02-.04-.03-.26-.2-.54-.38-.82-.55-.02-.01-.04-.03-.06-.04l-14.25-8.22 70.74-40.86c3.82-2.21 5.13-7.09 2.93-10.92l-4.39-7.62 50.38 13.49-13.5 50.41z"/></svg>