<svg height="512" viewBox="0 0 64 64" width="512" xmlns="http://www.w3.org/2000/svg"><g id="Smartphone-Control-Remote-Light-Electronic"><path d="m31.692 20a10.064 10.064 0 0 0 -9.692 10.036 9.927 9.927 0 0 0 3.9 7.876 2.9 2.9 0 0 1 1.075 2.088h-1.975v2h2v3a1 1 0 0 0 1 1h8a1 1 0 0 0 1-1v-3h2v-2h-1.973a3.017 3.017 0 0 1 1.154-2.149 10 10 0 0 0 -6.489-17.851zm-2.692 24v-2h6v2zm7.944-7.722a5.018 5.018 0 0 0 -1.939 3.722h-6.005a4.927 4.927 0 0 0 -1.876-3.672 7.942 7.942 0 0 1 -3.124-6.3 8.049 8.049 0 0 1 7.752-8.028 7.992 7.992 0 0 1 5.192 14.274z"/><path d="m31 34h2v2h-2z"/><path d="m28.464 31.465 1.414 1.414a3.073 3.073 0 0 1 4.243 0l1.414-1.414a5 5 0 0 0 -7.071 0z"/><path d="m25.636 28.636 1.414 1.414a7.009 7.009 0 0 1 9.9 0l1.414-1.414a9.01 9.01 0 0 0 -12.728 0z"/><path d="m9 56h2v2h-2z"/><path d="m11.333 48.509a2 2 0 1 1 -2.666 0l-1.334-1.49a4 4 0 1 0 5.334 0z"/><path d="m9 45h2v5h-2z"/><path d="m9 18h2v2h-2z"/><path d="m12.667 9.019-1.334 1.49a2 2 0 1 1 -2.666 0l-1.334-1.49a4 4 0 1 0 5.334 0z"/><path d="m9 7h2v5h-2z"/><path d="m62 19v-12a5.006 5.006 0 0 0 -5-5h-6a5.006 5.006 0 0 0 -5 5v6.747a23.018 23.018 0 0 0 -28 0v-6.747a5.006 5.006 0 0 0 -5-5h-6a5.006 5.006 0 0 0 -5 5v12a5.006 5.006 0 0 0 5 5h3.442a22.912 22.912 0 0 0 0 16h-3.442a5.006 5.006 0 0 0 -5 5v12a5.006 5.006 0 0 0 5 5h6a5.006 5.006 0 0 0 5-5v-6.747a23.018 23.018 0 0 0 28 0v6.747a5.006 5.006 0 0 0 5 5h6a5.006 5.006 0 0 0 5-5v-12a5.006 5.006 0 0 0 -5-5h-3.442a22.912 22.912 0 0 0 0-16h3.442a5.006 5.006 0 0 0 5-5zm-14-12a3 3 0 0 1 3-3h6a3 3 0 0 1 3 3v12a3 3 0 0 1 -3 3h-6a3 3 0 0 1 -3-3zm-44 12v-12a3 3 0 0 1 3-3h6a3 3 0 0 1 3 3v12a3 3 0 0 1 -3 3h-6a3 3 0 0 1 -3-3zm12 38a3 3 0 0 1 -3 3h-6a3 3 0 0 1 -3-3v-12a3 3 0 0 1 3-3h6a3 3 0 0 1 3 3zm44-12v12a3 3 0 0 1 -3 3h-6a3 3 0 0 1 -3-3v-12a3 3 0 0 1 3-3h6a3 3 0 0 1 3 3zm-7-13a20.709 20.709 0 0 1 -1.593 8h-.407a5.006 5.006 0 0 0 -5 5v2.638a20.958 20.958 0 0 1 -28 0v-2.638a5.006 5.006 0 0 0 -5-5h-.406a20.872 20.872 0 0 1 0-16h.406a5.006 5.006 0 0 0 5-5v-2.638a20.958 20.958 0 0 1 28 0v2.638a5.006 5.006 0 0 0 5 5h.407a20.706 20.706 0 0 1 1.593 8z"/><path d="m53 18h2v2h-2z"/><path d="m54 16a4 4 0 0 0 2.667-6.981l-1.334 1.49a2 2 0 1 1 -2.666 0l-1.334-1.49a4 4 0 0 0 2.667 6.981z"/><path d="m53 7h2v5h-2z"/><path d="m53 56h2v2h-2z"/><path d="m54 54a4 4 0 0 0 2.667-6.981l-1.334 1.49a2 2 0 1 1 -2.666 0l-1.334-1.49a4 4 0 0 0 2.667 6.981z"/><path d="m53 45h2v5h-2z"/></g></svg>