<svg height="512" viewBox="0 0 32 32" width="512" xmlns="http://www.w3.org/2000/svg"><g id="smartphone" fill-rule="evenodd"><path d="m19 28.25h10a.25.25 0 0 0 .25-.25v-17a.25.25 0 0 0 -.25-.25h-10a.25.25 0 0 0 -.25.25v17a.25.25 0 0 0 .25.25zm.25-17h9.5v16.5h-9.5z"/><path d="m8.4 13.784a.25.25 0 1 0 .354.353 4.6 4.6 0 0 1 6.495 0 .25.25 0 1 0 .354-.353 5.1 5.1 0 0 0 -7.203 0z"/><path d="m7.258 12.642a.25.25 0 0 0 .353.358 6.21 6.21 0 0 1 8.778 0 .25.25 0 0 0 .354-.354 6.71 6.71 0 0 0 -9.485-.004z"/><path d="m9.54 14.925a.25.25 0 0 0 .354.354 2.98 2.98 0 0 1 4.212 0 .25.25 0 1 0 .354-.354 3.48 3.48 0 0 0 -4.92 0z"/><path d="m10.682 16.066a.25.25 0 0 0 .354.354 1.365 1.365 0 0 1 1.929 0 .25.25 0 0 0 .354-.354 1.865 1.865 0 0 0 -2.637 0z"/><path d="m11.95 17.136a1.057 1.057 0 1 0 1.057 1.057 1.058 1.058 0 0 0 -1.057-1.057zm0 1.614a.557.557 0 1 1 .557-.557.557.557 0 0 1 -.557.557z"/><path d="m30 9.75h-7.75v-7.75a.25.25 0 0 0 -.25-.25h-20a.25.25 0 0 0 -.25.25v26a.25.25 0 0 0 .25.25h15.75v1.75a.25.25 0 0 0 .25.25h12a.25.25 0 0 0 .25-.25v-20a.25.25 0 0 0 -.25-.25zm-12.25 18h-15.5v-25.5h19.5v7.5h-.5v-6.75a.25.25 0 0 0 -.25-.25h-18a.25.25 0 0 0 -.25.25v23a.25.25 0 0 0 .25.25h14.75zm0-17.75v15.75h-14.5v-22.5h17.5v6.5h-2.75a.25.25 0 0 0 -.25.25zm12 19.75h-11.5v-19.5h11.5z"/><path d="m11 27.25h2a.25.25 0 0 0 0-.5h-2a.25.25 0 0 0 0 .5z"/><path d="m25 28.75h-2a.25.25 0 0 0 0 .5h2a.25.25 0 0 0 0-.5z"/><path d="m22.333 21.917h3.333a.25.25 0 0 0 .25-.25v-3.334a.25.25 0 0 0 -.25-.25h-3.333a.25.25 0 0 0 -.25.25v3.333a.25.25 0 0 0 .25.251zm.25-3.333h2.833v2.833h-2.833z"/><path d="m28 18.917a.25.25 0 0 0 0-.5h-1.083v-1.084a.25.25 0 0 0 -.25-.25h-1.084v-1.083a.25.25 0 1 0 -.5 0v1.083h-.833v-1.083a.25.25 0 0 0 -.5 0v1.083h-.833v-1.083a.25.25 0 0 0 -.5 0v1.083h-1.084a.25.25 0 0 0 -.25.25v1.083h-1.083a.25.25 0 0 0 0 .5h1.083v.833h-1.083a.25.25 0 0 0 0 .5h1.083v.833h-1.083a.25.25 0 0 0 0 .5h1.083v1.083a.25.25 0 0 0 .25.25h1.083v1.085a.25.25 0 0 0 .5 0v-1.083h.833v1.083a.25.25 0 0 0 .5 0v-1.083h.833v1.083a.25.25 0 0 0 .5 0v-1.083h1.083a.25.25 0 0 0 .25-.25v-1.084h1.085a.25.25 0 0 0 0-.5h-1.083v-.833h1.083a.25.25 0 0 0 0-.5h-1.083v-.833zm-1.583 3.5h-4.834v-4.834h4.833z"/></g></svg>